# xmcd
#
# Track frame offsets:
#	150
#	15665
#	31569
#	54076
#	81201
#	99970
#	119475
#	135377
#	149566
#	168163
#	194152
#	211953
#
# Disc length: 3297 seconds
#
# Revision: 1
# Processed by: cddbd v1.5.2PL0 Copyright (c) Steve Scherf et al.
# Submitted via: audiograbber 1.83.01
#
DISCID=9a0cdf0c
DTITLE=Zoe Muth and The Lost High Rollers - Zoe Muth and The Lost High Rollers
DYEAR=2012
DGENRE=Country
TTITLE0=You Only Believe Me When I'm Lying
TTITLE1=Hey Little Darlin'
TTITLE2=I Used To Call My Heart A Home
TTITLE3=The Last Bus
TTITLE4=Such True Love
TTITLE5=Middle Of Nowhere
TTITLE6=Not You
TTITLE7=The Running Kind
TTITLE8=Hard Luck Love
TTITLE9=My Old Friend
TTITLE10=Wasting My Time
TTITLE11=Never Be Fooled Again
EXTD=
EXTT0=
EXTT1=
EXTT2=
EXTT3=
EXTT4=
EXTT5=
EXTT6=
EXTT7=
EXTT8=
EXTT9=
EXTT10=
EXTT11=
PLAYORDER=
